<?xml version="1.0" encoding="utf-8" ?>
<svg baseProfile="full" height="100%" version="1.1" width="100%" xmlns="http://www.w3.org/2000/svg" xmlns:ev="http://www.w3.org/2001/xml-events" xmlns:xlink="http://www.w3.org/1999/xlink"><defs /><g transform="translate(0,130) scale(0.5) rotate(270)"><defs /><rect fill="white" height="300" width="250" x="0" y="0" /><line stroke="darkgray" stroke-width="2" x1="30" x2="212.5" y1="55.0" y2="55.0" /><line stroke="darkgray" stroke-width="2" x1="30" x2="212.5" y1="110.0" y2="110.0" /><line stroke="darkgray" stroke-width="2" x1="30" x2="212.5" y1="165.0" y2="165.0" /><line stroke="darkgray" stroke-width="2" x1="30" x2="212.5" y1="220.0" y2="220.0" /><line stroke="darkgray" stroke-width="2" x1="30" x2="212.5" y1="275.0" y2="275.0" /><circle cx="22" cy="82.5" fill="black" r="2" /><circle cx="22" cy="192.5" fill="black" r="2" /><text fill="dimgray" font-family="Lato" font-size="15" font-style="italic" font-weight="bold" text-anchor="start" transform="rotate(90,214.5,58.0)" x="214.5" y="58.0">IV</text><line stroke="darkslategray" stroke-width="3.0" x1="31.5" x2="31.5" y1="45.0" y2="285.0" /><line stroke="darkslategray" stroke-width="2.6666666666666665" x1="66.5" x2="66.5" y1="45.0" y2="285.0" /><line stroke="darkslategray" stroke-width="2.3333333333333335" x1="103.0" x2="103.0" y1="45.0" y2="285.0" /><line stroke="darkslategray" stroke-width="2.0" x1="139.5" x2="139.5" y1="45.0" y2="285.0" /><line stroke="darkslategray" stroke-width="1.6666666666666667" x1="176.0" x2="176.0" y1="45.0" y2="285.0" /><line stroke="darkslategray" stroke-width="1.3333333333333335" x1="211.83333333333334" x2="211.83333333333334" y1="45.0" y2="285.0" /><circle cx="30.0" cy="82.5" fill="chocolate" r="12" stroke="darkslategray" stroke-width="2" /><text alignment-baseline="central" fill="white" font-family="Lato" font-size="15" font-weight="bold" text-anchor="middle" transform="rotate(90,30.0,82.5)" x="30.0" y="82.5">A</text><circle cx="66.5" cy="82.5" fill="dodgerblue" r="12" stroke="darkslategray" stroke-width="2" /><text alignment-baseline="central" fill="white" font-family="Lato" font-size="15" font-weight="bold" text-anchor="middle" transform="rotate(90,66.5,82.5)" x="66.5" y="82.5">D</text><circle cx="103.0" cy="82.5" fill="dodgerblue" r="12" stroke="darkslategray" stroke-width="2" /><text alignment-baseline="central" fill="white" font-family="Lato" font-size="15" font-weight="bold" text-anchor="middle" transform="rotate(90,103.0,82.5)" x="103.0" y="82.5">G</text><circle cx="139.5" cy="82.5" fill="dodgerblue" r="12" stroke="darkslategray" stroke-width="2" /><text alignment-baseline="central" fill="white" font-family="Lato" font-size="15" font-weight="bold" text-anchor="middle" transform="rotate(90,139.5,82.5)" x="139.5" y="82.5">C</text><circle cx="176.0" cy="82.5" fill="dodgerblue" r="12" stroke="darkslategray" stroke-width="2" /><text alignment-baseline="central" fill="white" font-family="Lato" font-size="15" font-weight="bold" text-anchor="middle" transform="rotate(90,176.0,82.5)" x="176.0" y="82.5">E</text><circle cx="212.5" cy="82.5" fill="chocolate" r="12" stroke="darkslategray" stroke-width="2" /><text alignment-baseline="central" fill="white" font-family="Lato" font-size="15" font-weight="bold" text-anchor="middle" transform="rotate(90,212.5,82.5)" x="212.5" y="82.5">A</text><circle cx="30.0" cy="247.5" fill="dodgerblue" r="12" stroke="darkslategray" stroke-width="2" /><text alignment-baseline="central" fill="white" font-family="Lato" font-size="15" font-weight="bold" text-anchor="middle" transform="rotate(90,30.0,247.5)" x="30.0" y="247.5">C</text><circle cx="66.5" cy="192.5" fill="dodgerblue" r="12" stroke="darkslategray" stroke-width="2" /><text alignment-baseline="central" fill="white" font-family="Lato" font-size="15" font-weight="bold" text-anchor="middle" transform="rotate(90,66.5,192.5)" x="66.5" y="192.5">E</text><circle cx="103.0" cy="192.5" fill="chocolate" r="12" stroke="darkslategray" stroke-width="2" /><text alignment-baseline="central" fill="white" font-family="Lato" font-size="15" font-weight="bold" text-anchor="middle" transform="rotate(90,103.0,192.5)" x="103.0" y="192.5">A</text><circle cx="139.5" cy="192.5" fill="dodgerblue" r="12" stroke="darkslategray" stroke-width="2" /><text alignment-baseline="central" fill="white" font-family="Lato" font-size="15" font-weight="bold" text-anchor="middle" transform="rotate(90,139.5,192.5)" x="139.5" y="192.5">D</text><circle cx="176.0" cy="247.5" fill="dodgerblue" r="12" stroke="darkslategray" stroke-width="2" /><text alignment-baseline="central" fill="white" font-family="Lato" font-size="15" font-weight="bold" text-anchor="middle" transform="rotate(90,176.0,247.5)" x="176.0" y="247.5">G</text><circle cx="212.5" cy="247.5" fill="dodgerblue" r="12" stroke="darkslategray" stroke-width="2" /><text alignment-baseline="central" fill="white" font-family="Lato" font-size="15" font-weight="bold" text-anchor="middle" transform="rotate(90,212.5,247.5)" x="212.5" y="247.5">C</text></g></svg>